<svg xmlns="http://www.w3.org/2000/svg" viewBox="0 0 1200 1000">
  <path d="M250,260 
           C210,200 240,150 300,170 
           C350,190 400,120 460,120 
           C540,120 590,180 640,200 
           C700,230 830,180 860,270 
           C880,360 810,370 840,420 
           C880,470 1050,450 1080,550 
           C1110,650 920,620 860,670 
           C800,720 920,800 850,870 
           C770,940 730,770 650,750 
           C570,730 620,950 510,970 
           C400,990 460,770 370,740 
           C280,710 180,770 150,670 
           C120,570 290,570 290,520 
           C290,470 140,470 160,370 
           C180,270 300,320 250,260 Z" 
        fill="#AED9F2" />
</svg>

